<?xml version="1.0" encoding="utf-8"?>
<!-- Generator: Adobe Illustrator 19.0.1, SVG Export Plug-In . SVG Version: 6.00 Build 0)  -->
<svg version="1.1" id="Layer_1" xmlns="http://www.w3.org/2000/svg" xmlns:xlink="http://www.w3.org/1999/xlink" x="0px" y="0px"
	 viewBox="0 0 570 73.8" style="enable-background:new 0 0 570 73.8;" xml:space="preserve">
<style type="text/css">
	.st0{fill:#292833;}
</style>
<g>
	<path class="st0" d="M19.5,62.5c-0.8,0-1.4-0.6-1.4-1.4V15.6c0-0.8,0.6-1.4,1.4-1.4h4.4c0.8,0,1.4,0.6,1.4,1.4v16.9
		c0,0.8,0.6,1.4,1.4,1.4h4.9c0.8,0,1.4-0.6,1.4-1.4V15.6c0-0.8,0.6-1.4,1.4-1.4h4.4c0.8,0,1.4,0.6,1.4,1.4v45.5
		c0,0.8-0.6,1.4-1.4,1.4h-4.4c-0.8,0-1.4-0.6-1.4-1.4V42.5c0-0.8-0.6-1.4-1.4-1.4h-4.9c-0.8,0-1.4,0.6-1.4,1.4v18.6
		c0,0.8-0.6,1.4-1.4,1.4H19.5z"/>
	<path class="st0" d="M49.3,50.8c0,6.8,3.5,12.4,11,12.4c7.5,0,11-5.5,11-12.4V25.9c0-6.8-3.5-12.4-11-12.4c-7.5,0-11,5.6-11,12.4
		V50.8z M56.5,26.1c0-3.6,0.9-5.3,3.8-5.3c2.9,0,3.8,1.7,3.8,5.3v24.5c0,3.6-0.9,5.3-3.8,5.3c-2.9,0-3.8-1.7-3.8-5.3V26.1z"/>
	<path class="st0" d="M90.1,55.3c-0.8,0-1.4-0.6-1.4-1.4V15.6c0-0.8-0.6-1.4-1.4-1.4h-4.4c-0.8,0-1.4,0.6-1.4,1.4v45.5
		c0,0.8,0.6,1.4,1.4,1.4h15.7c0.8,0,1.4-0.6,1.4-1.4v-4.4c0-0.8-0.6-1.4-1.4-1.4H90.1z"/>
	<path class="st0" d="M108.3,62.5c-0.8,0-1.4-0.6-1.4-1.4V15.6c0-0.8,0.6-1.4,1.4-1.4h4.4c0.8,0,1.4,0.6,1.4,1.4v38.3
		c0,0.8,0.6,1.4,1.4,1.4h8.5c0.8,0,1.4,0.6,1.4,1.4v4.4c0,0.8-0.6,1.4-1.4,1.4H108.3z"/>
	<path class="st0" d="M135.1,62.5c-0.8,0-1.4-0.6-1.4-1.4V15.6c0-0.8,0.6-1.4,1.4-1.4h4.4c0.8,0,1.4,0.6,1.4,1.4v45.5
		c0,0.8-0.6,1.4-1.4,1.4H135.1z"/>
	<path class="st0" d="M151,49.8L155,49c0.8-0.1,1.7,0.8,1.9,1.6c0,0,0.4,5.4,4.1,5.4c2.5,0,4.2-1.5,4.2-4.4
		c0-9.6-14.6-12.1-14.6-25.9c0-7.7,4.1-12,11.1-12c8.2,0,9.4,10,9.4,10c0.3,0.7-0.1,1.8-0.9,1.9l-4,0.5c-1.1,0-1.4-1.3-1.4-1.3
		c-0.2-2.9-2.3-4.3-4.3-4.2c-2.3,0.2-3.3,2-3.3,5c0,8.2,14.6,12.2,14.6,25.3c0,8-4.6,12.4-11.4,12.4c-6,0-9.5-5-10.6-11.2
		C149.7,49.8,151,49.8,151,49.8"/>
	<path class="st0" d="M184.5,22.8c0-0.8-0.6-1.4-1.4-1.4H179c-0.8,0-1.4-0.6-1.4-1.4v-4.4c0-0.8,0.6-1.4,1.4-1.4h18.3
		c0.8,0,1.4,0.6,1.4,1.4v4.4c0,0.8-0.6,1.4-1.4,1.4h-4.2c-0.8,0-1.4,0.6-1.4,1.4v38.3c0,0.8-0.6,1.4-1.4,1.4h-4.4
		c-0.8,0-1.4-0.6-1.4-1.4V22.8z"/>
	<path class="st0" d="M207.2,62.5c-0.8,0-1.4-0.6-1.4-1.4V15.6c0-0.8,0.6-1.4,1.4-1.4h16.5c0.8,0,1.4,0.6,1.4,1.4v4.4
		c0,0.8-0.6,1.4-1.4,1.4h-9.3c-0.8,0-1.4,0.6-1.4,1.4v9.7c0,0.8,0.6,1.4,1.4,1.4h6.5c0.8,0,1.4,0.6,1.4,1.4v4.4
		c0,0.8-0.6,1.4-1.4,1.4h-6.5c-0.8,0-1.4,0.6-1.4,1.4v11.4c0,0.8,0.6,1.4,1.4,1.4h10.1c0.8,0,1.4,0.6,1.4,1.4v4.4
		c0,0.8-0.6,1.4-1.4,1.4H207.2z"/>
	<path class="st0" d="M241.6,44.1c0-0.8,0.6-1.4,1.4-1.4c0,0,0.4,0,1.1-0.1c0.7-0.1,1.4,0.5,1.6,1.2l4.4,17.3c0.2,0.7,1,1.3,1.7,1.3
		h4.5c0.8,0,1.2-0.6,1-1.3l-5.7-20.5c2.4-1.3,5-4.4,5-12.2c0-10.3-6.7-14.2-13.6-14.2h-7.3c-0.8,0-1.4,0.6-1.4,1.4v45.5
		c0,0.8,0.6,1.4,1.4,1.4h4.4c0.8,0,1.4-0.6,1.4-1.4V44.1z M241.6,22.4c0-0.8,0.6-1.4,1.4-1.4h1.2c3.9,0,5.3,1.7,5.3,7.4
		c0,5.8-4,7-4,7c-0.7,0.2-1.9,0.4-2.6,0.4c-0.7,0-1.3-0.6-1.3-1.4V22.4z"/>
</g>
<g>
	<g>
		<path class="st0" d="M533.2,52.7c-0.5,1.6-0.9,3.2-1.4,4.8c-0.2,0.8-0.2,1.7-1.4,1.8c-0.1,0-0.2,0.4-0.3,0.6
			c-0.5,0.9-1,1.9-1.6,2.8c-0.1,0.2-0.5,0.2-0.7,0.3c0-0.1-0.1-0.2-0.1-0.3c-0.9,1.3-1.8,2.6-2.6,3.7c0,0,0-0.2-0.1-0.5
			c-0.4,0.5-0.7,1-0.9,1.2c-0.8-0.2-1.5-0.4-2.2-0.5c-0.9-0.2-1.8-0.4-2.6-0.7c-0.2-0.1-0.5-0.5-0.5-0.7c-0.1-1.2-0.4-2.5-0.2-3.7
			c0.4-2.1,1-4.2,1.7-6.2c0.5-1.4,1.3-2.8,1.6-4.2c0.7-3.8,2.5-7.2,4-10.7c0.3-0.6,0.2-1.1-0.1-1.7c-0.9-1.7-1.7-3.5-2.4-5.3
			c-1.2-3.2-2.5-6.3-3.5-9.6c-0.7-2.4-1.2-4.8-1.6-7.3c-0.2-1.1,0.2-2.2,0.2-3.3c0.1-0.9,0.3-1.3,1.3-1.4c2.1-0.2,3.8,0,5.5,1.7
			c2.5,2.6,4.5,5.5,5.7,8.9c0.2,0.5,0.5,1,0.8,1.4c1.2-2.2,2.3-4.2,3.4-6.2c0.8-1.5,1.5-3.2,2.2-4.7c0.4-1,0.8-1.9,1.4-2.8
			c0.2-0.3,0.8-0.5,1.3-0.5c1.1,0.1,2.1,0.3,3.2,0.4c2.2,0.4,2.8,1.8,1.8,3.9c-0.5,1.1-0.9,2.3-1.2,3.5c-0.5,1.8-1,3.6-1.3,5.4
			c-0.6,3.5-2,6.8-2.6,10.3c-0.2,1.1-0.6,2.1-0.9,3.2c-0.1,0.2,0,0.6,0.1,0.8c1.9,2.9,3.1,6.1,5.4,8.7c1.5,1.8,2.8,3.7,3.7,5.8
			c1,2.3,1.6,4.8,1,7.4c-0.1,0.3-0.1,0.7-0.1,1c-0.2-0.2-0.4-0.3-0.5-0.5c0.8,1.9-0.8,2.9-1.8,3.9c-0.6,0.6-1.9,0.5-2.8-0.1
			c-0.2-0.2-0.6-0.4-0.8-0.3c-1.4,0.8-2.3-0.2-3-0.9c-1.3-1.5-2.5-3.2-3.6-4.8c-1-1.4-1.9-2.9-2.8-4.4
			C533.5,52.7,533.3,52.7,533.2,52.7z"/>
		<path class="st0" d="M458.3,31.7c-2.2,1-4.1,2-5.3,3.9c-1.5,0.4-2.9,0.7-4.4,1.1c-1,0.2-2,0.4-3,0.5c-1.3,0-2.7-0.1-4-0.1
			c-0.2,0-0.3-0.1-0.5-0.2c-0.6-0.1-1.4-0.5-1.8-0.3c-0.6,0.2-1.1,0.7-1,1.8c0.4,4.3,0.6,8.7,0.7,13.1c0.1,3.9,0.2,7.8-0.5,11.7
			c-0.1,0.8-0.4,1.6-0.8,2.3c-0.6,1.2-1.9,0.9-2.8,1.2c-0.3,0.1-0.7,0.1-0.7,0.2c-0.5-0.3-0.8-0.7-1.2-0.8c-1.1-0.2-2.4-0.1-2.9-1.5
			c-0.1-0.2-0.6-0.3-0.8-0.3c-0.2,0.1-0.4,0.5-0.6,0.7c-0.2,0.3-0.3,0.5-0.3,0.7c-0.1-1.2-0.2-2.5-0.4-3.7c-0.1-0.4-0.8-0.6-0.8-1
			c-0.5-2.5-1.1-5-1.3-7.5c-0.3-4.1-0.4-8.2-0.2-12.3c0.1-2.4-0.1-4.9,0.3-7.4c0.4-1.9-0.3-4-0.3-6c0-1.8,0.6-3.5,0.3-5.3
			c-0.5-3.6,0.9-6.9,1.7-10.2c0.2-1,1.5-1.8,2.5-1.9c1.8,0,3.6-0.3,5.4-0.4c1.5-0.1,3-0.1,4.5-0.1c3.9,0,7.7-0.2,11.5,0
			c2.6,0.1,5.4,0.1,7.9,1.1c0,0.1,0,0.3,0.1,0.4c-2.4,0.7-4.8,1.3-7.1,2c0.3,0.6-0.1,0.7-0.8,0.8c-0.5,0-1,0.3-1.5,0.5
			c-0.3,0.1-0.5,0.4-0.8,0.4c-2,0.2-4.1,0.4-6.1,0.4c-1.9,0-3.8-0.3-5.8-0.4c-1.1-0.1-1.2,0.1-1,1.2c0.4,2.7,0.9,5.5,1.1,8.2
			c0.2,1.7,0.1,3.4,0,5.1c0,1,0.5,1.1,1.2,1.1c3.9-0.2,7.9-0.5,11.8-0.4C453.3,30.3,455.9,30.4,458.3,31.7z"/>
		<path class="st0" d="M499.1,36.1c2.4,0.1,4.5,0.3,6.6,0.2c1.4,0,2.8-0.5,4.2-0.5c0.7,0,1.4,0.1,2.1,0.4c0.7,0.3,0.7,1.4,0,1.7
			c-1.6,0.9-3.2,1.7-4.8,2.4c-1.1,0.4-2.3,0.3-3.5,0.6c-1.3,0.3-2.5,0.7-3.8,0.6c-0.2,0-0.5,0.8-0.5,1.3c0,3.8-0.1,7.5,0,11.3
			c0,1.1,0.3,2.3,0.8,3.4c0.5,1.2,1.8,0.9,2.8,0.8c3.1-0.2,6.2,0,9.2,1c0.4,0.1,0.6,0.6,0.9,0.9c-0.3,0.3-0.6,0.6-0.9,0.9
			c-0.1,0.1-0.3,0.2-0.4,0.2c0.2,0.4,0.5,0.8,0.7,1.3c0.2-0.2,0.4-0.4,0.5-0.5c-0.3,2.6-2.2,3.3-4.6,3.7c0.6,0.3,0.9,0.5,1.2,0.7
			c-0.6,0.7-1.6,0.8-2.4,1.5c-0.5,0.5-1.9,0.3-2.9,0.3c-3.2,0.1-6.3-0.1-9.4-0.8c-3.4-0.8-5.7-4-5.8-7.5c0-1.4-0.5-2.9-1-4.2
			c-0.7-1.8-0.7-3.6-0.7-5.4c0-2.3,0.4-4.6,0.4-6.9c0.1-2.3,0-4.6,0-6.8c0-1.4,0.1-2.9,0.2-4.3c0.2-2.3,0.4-4.7,0.5-7
			c0.1-1.8-0.2-3.6,0-5.4c0.3-2.6,0.8-5.2,1.2-7.8c0.2-1.3,1-1.4,1.9-1.4c1.3,0,2.6,0,3.9,0.1c1.4,0.2,2.9-0.3,4.4-0.3
			c1.7,0,3.5,0.4,5.2,0.5c0.8,0.1,1.7-0.2,2.5-0.2c1.3,0.1,2.6,0.2,3.8,0.4c0.4,0.1,0.7,0.5,1.1,0.8c-0.4,1.3-1.6,1.7-2.6,2.4
			c-0.4,0.3-0.8,0.5-1.2,0.7c-1.7,1.1-3.6,1-5.5,0.7c-1.2-0.2-2.4,0.1-3.4,0.7c-0.1,0.1-0.3,0.2-0.4,0.2c-1.7,0.7-1.6,0.7-1.4,2.6
			c0.3,3,0.5,6,0.7,9C499,30.9,499,33.5,499.1,36.1z"/>
		<path class="st0" d="M471.8,16.1c-0.2,1.1-0.5,2.2-0.5,3.4c-0.1,2.3-0.2,4.6-0.3,6.9c-0.1,1.9-0.3,3.9-0.3,5.8
			c-0.1,2.4,0,4.8-0.1,7.2c-0.1,1.5-0.5,3-0.6,4.5c-0.1,1.4,0,2.9,0,4.4c0.1,2,0.1,3.9,0.3,5.9c0.1,1.5,0.8,2.1,2.3,2.1
			c3.6,0.1,7.1,0.7,10.5,1.8c2,0.6,2.3,2.4,0.9,3.6c-0.5,0.4-0.7,1.1-1.2,1.5c-1.1,1.1-2.6,1-3.9,1c-1.5,0.1-3,0.2-4.1,1.5
			c-0.3,0.3-0.8,0.5-1.3,0.5c-2.7-0.1-5.5-0.3-8-1.5c-1.8-0.9-2.9-2.5-3.7-4.3c-0.6-1.5-1.1-3-1.1-4.6c0-0.7-0.4-1.5-0.5-2.3
			c-0.6-3.1-0.8-6.2-0.2-9.5c0.7-3.8,1.1-7.6,1.4-11.4c0.3-3.9,0.2-7.9,0.5-11.8c0.3-3.1,1-6.3,1.6-9.4c0.1-0.4,0.5-1,0.9-1.1
			c1.8-0.6,3.5-0.8,5.4,0c1.4,0.6,1.4,1.8,1.7,2.9C471.9,13.9,471.8,15,471.8,16.1z"/>
	</g>
</g>
<g>
	<g>
		<path class="st0" d="M291.3,18.8c-0.2,4.5-0.3,9-0.5,13.2c3.1,0,6.2,0,9.3,0c2.5,0,3.3,0.6,4,3c0.2,0.6,0.1,1.3,0.3,2
			c0.4,1.1-0.5,1.4-1.1,1.6c-2.3,1-4.8,1.4-7.3,1.5c-1.6,0.1-3.2-0.1-4.7-0.2c-0.9,0-1.4,0.5-1.5,1.4c0,2.2,0.1,4.5-0.1,6.7
			c-0.1,1.6-0.5,3.2-0.7,4.7c-0.2,1.4-0.3,2.8-0.4,4.4c1.8-0.2,3.2-0.5,4.6-0.6c1.9-0.1,3.8-0.1,5.7-0.1c1.9,0,3.8,0.2,5.6,0.1
			c2.7-0.2,3.8,0.9,3.8,3.6c0,1.6-1.1,3.1-2.7,3.4c-2.6,0.5-5.1,1.3-7.8,1.3c-2.1,0-4.1,0.2-6.2,0.4c-1.6,0.1-3.3,0.5-4.9,0.6
			c-1.4,0-2.8-0.3-4.1-0.7c-0.4-0.1-0.7-0.8-0.8-1.3c-0.4-2.2-0.8-4.4-1.1-6.5c-0.5-3.4-0.7-6.7,0-10.1c0.3-1.4,0-2.9,0.1-4.4
			c0.2-3.3,0.7-6.6,0.7-9.9c0-4.4,0.3-8.8,1-13.2c0.3-2.2,0.4-4.4,0.8-6.6c0.5-3.3,1.4-3.8,5.1-3.2c1.2,0.2,2.4,1,3.6,1.2
			c1.2,0.3,2.5,0.2,3.8,0.3c1.4,0.1,2.7,0.2,4.1,0.2c2.1,0.1,4.3,0.2,6.4,0.2c1.3,0,2.1,0.9,2.5,2c0.3,0.9,0.4,2,0.4,3
			c0,0.6-1.4,1.7-2,1.7c-2.9,0.2-5.8,0.4-8.7,0.4c-1.9,0-3.9-0.1-5.9-0.2C292.1,18.8,291.7,18.8,291.3,18.8z"/>
	</g>
</g>
<g>
	<g>
		<path class="st0" d="M327.6,43.3c-0.2,2.2-0.4,4.5-0.5,6.8c-0.1,1.4,0,2.8-0.1,4.1c-0.1,1.1-0.3,2.3-0.3,3.4c0,0.9,0,1.8,0.2,2.6
			c0.6,3.2-1.7,5.4-4.1,5.3c-1.7-0.1-3.9-2.2-4.1-3.9c-0.2-1.7-0.5-3.5-0.6-5.2c-0.1-1,0.1-2,0.2-3c0.2-3.1,0.3-6.2,0.4-9.3
			c0.2-3.8,0.2-7.6,0.5-11.4c0.4-3.8,0.4-7.6,0.4-11.4c0-2.9,0.5-5.7,0.8-8.6c0.1-1,1.8-2.1,2.6-2c1.7,0.2,3.5,0.6,5.1,0.3
			c3.5-0.5,6,1.3,8.5,3.4c2,1.7,2.8,4.1,3.5,6.4c0.8,2.7,1.4,5.5,1.9,8.3c0.3,1.7-0.2,3.4-0.9,4.9c-0.6,1.3-1,2.7-1.9,3.7
			c-1,1.3-2.4,2.3-3.7,3.3c-0.9,0.7-2,1.2-3.1,1.5c-1.4,0.3-2.9,0.2-4.3,0.3C328.1,43.2,327.9,43.3,327.6,43.3z M328.4,38.7
			c1-0.7,1.8-1.2,2.6-1.8c2.6-1.9,3.7-4.5,3.3-7.7c-0.3-2.2-0.8-4.3-1.4-6.4c-0.6-1.8-1.8-2.8-3.3-3.6c-0.3-0.1-1.1,0.2-1.2,0.5
			c-0.3,0.5-0.3,1.1-0.3,1.7c0,1.9,0.2,3.8,0.1,5.6c0,1.7-0.4,3.3-0.4,5C328,34.1,328.2,36.3,328.4,38.7z"/>
	</g>
</g>
<g>
	<g>
		<path class="st0" d="M351.5,54.2c-0.8-0.1-0.6-0.4-0.5-1c0.1-1.1-0.5-2.2-0.7-3.3c-0.2-1.3,0-2.7-0.3-3.9c-0.2-0.6,0-1.2-0.2-1.6
			c-0.9-1.5-0.6-3.1-0.6-4.6c0.1-5.5,0.1-10.9,0.8-16.3c0.3-2.7,0.2-5.6,1.5-8.2c0.7-1.4,1.2-2,2.8-2c1.1,0,2.3,0.1,3.4,0.2
			c1.5,0.2,2.5,1.2,2.9,2.6c0.3,1.3,0.4,2.7,0.5,4.1c0.1,1.8,0.2,3.5,0.2,5.3c0,1.9-0.1,3.7-0.2,5.6c-0.2,2.9-0.5,5.8-0.6,8.6
			c-0.1,2.8,0.2,5.7,0.2,8.5c0,2.2-0.1,4.3-0.2,6.5c-0.1,2.5,0,4.9-0.3,7.4c-0.1,1.2-0.3,2.7-1.5,3.5c-0.6,0.4-1.3,0.7-1.9,0.6
			c-1.2-0.1-2.4-0.3-3.5-0.7c-1.2-0.5-1.5-1.6-1.3-3c0.1-1.3,0.1-2.7-0.1-4c-0.1-1.1-0.5-2.2-0.6-3.4
			C351,54.8,351.2,54.6,351.5,54.2z"/>
	</g>
</g>
<g>
	<g>
		<path class="st0" d="M390,65.3c-1,0.4-1.9,1.2-2.9,1.3c-1.6,0-3.3-0.4-4.9-0.7c-1.2-0.3-2.3-0.7-3.5-1.1c-1.5-0.5-2.3-1.8-3.5-2.7
			c-2.5-2.1-3.3-5.2-4.3-8.1c-0.9-2.4-0.6-4.9-0.4-7.4c0.2-1.6,0.1-3.3,0.1-4.9c0.1-2.4,0.3-4.8,0.4-7.2c0.1-1.7,0-3.3,0.2-5
			c0.3-2.4,0.4-4.9,1.1-7.2c0.6-2.1,2-4,2.9-6c0.7-1.7,2.1-2.7,3.5-3.5c0.9-0.6,2.4-0.4,3.6-0.4c3.2-0.1,5.7,1.8,8.2,3.3
			c1.9,1.2,2.6,3.2,2.6,5.5c0,1.7,0.1,3.4,0,5.1c-0.1,1.6-0.5,3.2-2.1,4c-1.4,0.7-3.4,0-4-1.4c-0.3-0.8-0.3-1.8-0.6-2.7
			c-0.3-1.2-0.6-2.5-1.3-3.5c-0.9-1.4-3.5-0.8-4.1,0.7c-1.2,3.2-1.5,6.5-1.6,9.9c-0.1,3.4,0.2,6.9,0.3,10.3c0.1,2.4-0.1,4.8,0.1,7.1
			c0.2,2.2,0.7,4.4,1.2,6.6c0.4,1.7,2.1,1.9,3.3,2.6c0.1,0,0.2,0,0.2,0c0.5,0.1,1.1,0.6,1.4,0.4c1-0.7,2-1.4,2.1-2.8
			c0.2-2.3,0.4-4.6,0.7-6.8c0.2-1.2,0.7-2.3,1.3-3.3c0.2-0.3,0.9-0.6,1.3-0.5c1.8,0.4,3.9,0.4,4.7,2.4c0.5,1.1,0.3,2.4,0.4,3.6
			c0.1,2.7-0.4,5.3-1,7.9c-0.3,1.5-3.2,4.6-4.6,4.9c-0.2,0-0.5-0.2-0.7-0.3C389.9,65.1,389.9,65.2,390,65.3z"/>
	</g>
</g>
</svg>
